<?xml version="1.0" encoding="UTF-8" standalone="no"?>
<!DOCTYPE svg PUBLIC "-//W3C//DTD SVG 1.1//EN" "http://www.w3.org/Graphics/SVG/1.1/DTD/svg11.dtd">
<svg width="100%" height="100%" viewBox="0 0 40 36" version="1.1" xmlns="http://www.w3.org/2000/svg" xmlns:xlink="http://www.w3.org/1999/xlink" xml:space="preserve" xmlns:serif="http://www.serif.com/" style="fill-rule:evenodd;clip-rule:evenodd;stroke-linejoin:round;stroke-miterlimit:1.41421;">
    <g transform="matrix(1,0,0,1,-0.283245,-0.787234)">
        <g transform="matrix(0.714286,0,0,0.770833,-227.143,-225.083)">
            <g transform="matrix(1.4,0,0,1.2973,346.397,316.373)">
                <g transform="matrix(1,0,0,1,-20,-18)">
                    <clipPath id="_clip1">
                        <rect x="0" y="0" width="40" height="36"/>
                    </clipPath>
                    <g clip-path="url(#_clip1)">
                        <g transform="matrix(3.84043,0,0,2.59048,-2162.59,-1050.57)">
                            <g id="play" transform="matrix(1.59441e-17,0.386029,-0.260388,2.36374e-17,660.236,340.312)">
                                <path d="M187,337L205,373L169,373L187,337Z" style="fill:rgb(255,143,108);"/>
                            </g>
                            <g transform="matrix(0.260388,0,0,0.386029,537.407,360)">
                                <rect x="135" y="118" width="3" height="36" style="fill:rgb(255,143,108);"/>
                            </g>
                        </g>
                    </g>
                </g>
            </g>
        </g>
    </g>
</svg>
